<svg width="1200" height="600" viewBox="0 0 1200 600" xmlns="http://www.w3.org/2000/svg" role="img" aria-label="Fast delivery medical support banner">
  <defs>
    <linearGradient id="bg" x1="0%" y1="0%" x2="100%" y2="100%">
      <stop offset="0%" stop-color="#1E90FF" />
      <stop offset="100%" stop-color="#34D7FF" />
    </linearGradient>
    <linearGradient id="card" x1="0%" y1="0%" x2="100%" y2="0%">
      <stop offset="0%" stop-color="#0C5BD7" />
      <stop offset="100%" stop-color="#00C4FF" />
    </linearGradient>
    <clipPath id="rounded">
      <rect x="0" y="0" width="1200" height="600" rx="28" ry="28" />
    </clipPath>
  </defs>
  <g clip-path="url(#rounded)">
    <rect width="1200" height="600" fill="url(#bg)" />
    <g opacity="0.15" fill="#fff">
      <circle cx="200" cy="120" r="36" />
      <circle cx="360" cy="80" r="20" />
      <rect x="960" y="80" width="80" height="16" rx="8" />
      <rect x="990" y="110" width="110" height="16" rx="8" />
      <rect x="1010" y="140" width="70" height="16" rx="8" />
    </g>
    <path d="M0 430 C200 360 380 500 600 430 C820 360 980 520 1200 450 V600 H0 Z" fill="#0C4CB8" opacity="0.15" />
    <g transform="translate(80,120)" fill="#fff">
      <text x="0" y="34" font-family="'Inter', sans-serif" font-size="24" font-weight="700" opacity="0.85">MEDICAL SPECIALIST</text>
      <text x="0" y="82" font-family="'Inter', sans-serif" font-size="54" font-weight="800">Fast &amp; Safe Delivery</text>
      <text x="0" y="126" font-family="'Inter', sans-serif" font-size="22" opacity="0.9">Get your prescriptions delivered within hours.</text>
      <g font-family="'Inter', sans-serif" font-size="20" opacity="0.92">
        <text x="0" y="176">• Same-day delivery in selected areas</text>
        <text x="0" y="210">• Temperature-aware packaging</text>
        <text x="0" y="244">• Secure payment &amp; tracking</text>
      </g>
      <rect x="0" y="282" width="170" height="48" rx="12" fill="#FFC107" />
      <text x="22" y="313" font-family="'Inter', sans-serif" font-size="20" font-weight="700" fill="#0B2B6B">24/7 services</text>
    </g>
    <g transform="translate(720,110)">
      <rect x="0" y="0" width="430" height="320" rx="18" fill="#0C5BD7" opacity="0.2" />
      <rect x="18" y="18" width="394" height="284" rx="18" fill="#fff" />
      <rect x="200" y="22" width="190" height="36" rx="18" fill="url(#card)" />
      <text x="215" y="47" font-family="'Inter', sans-serif" font-size="18" font-weight="700" fill="#fff">Fast Delivery</text>
      <g transform="translate(36,80)">
        <rect x="0" y="0" width="320" height="200" rx="16" fill="#E8F3FF" />
        <rect x="20" y="30" width="90" height="140" rx="20" fill="#B2C8FF" />
        <circle cx="70" cy="60" r="26" fill="#F6F9FF" />
        <rect x="140" y="50" width="140" height="26" rx="13" fill="#0C5BD7" opacity="0.85" />
        <rect x="140" y="92" width="120" height="18" rx="9" fill="#9EC5FF" />
        <rect x="140" y="122" width="160" height="18" rx="9" fill="#9EC5FF" opacity="0.8" />
        <rect x="140" y="152" width="130" height="18" rx="9" fill="#9EC5FF" opacity="0.65" />
        <circle cx="280" cy="160" r="36" fill="#0C5BD7" opacity="0.18" />
        <path d="M260 170 l12 -38 20 38z" fill="#0C5BD7" opacity="0.7" />
      </g>
    </g>
    <g fill="#fff" opacity="0.85" font-family="'Inter', sans-serif" font-size="18" font-weight="600">
      <text x="920" y="80">342 243 5656</text>
      <text x="920" y="110" font-size="16">Emergencies</text>
    </g>
  </g>
</svg>
