<svg width="1200" height="600" viewBox="0 0 1200 600" xmlns="http://www.w3.org/2000/svg" role="img" aria-label="Online consultation banner">
  <defs>
    <linearGradient id="consult-bg" x1="0%" y1="0%" x2="100%" y2="0%">
      <stop offset="0%" stop-color="#F7FBFF" />
      <stop offset="100%" stop-color="#FFFFFF" />
    </linearGradient>
    <clipPath id="consult-rounded">
      <rect width="1200" height="600" rx="28" ry="28" />
    </clipPath>
  </defs>
  <g clip-path="url(#consult-rounded)">
    <rect width="1200" height="600" fill="url(#consult-bg)" />
    <text x="120" y="130" font-family="'Inter', sans-serif" font-size="24" font-weight="700" fill="#1E3A8A">Medical Services</text>
    <text x="120" y="190" font-family="'Inter', sans-serif" font-size="52" font-weight="800" fill="#0B2B6B">Medical Services</text>
    <text x="120" y="240" font-family="'Inter', sans-serif" font-size="52" font-weight="800" fill="#0B2B6B">That you can trust.</text>
    <text x="120" y="290" font-family="'Inter', sans-serif" font-size="20" fill="#475569">Private consultations, expert guidance, and safe refills.</text>
    <g fill="#2563EB" opacity="0.9">
      <circle cx="1020" cy="130" r="70" />
      <circle cx="940" cy="330" r="32" />
      <rect x="1010" y="330" width="48" height="16" rx="8" />
    </g>
    <g fill="#FACC15" opacity="0.85">
      <circle cx="880" cy="120" r="36" />
      <circle cx="1030" cy="250" r="22" />
    </g>
    <g fill="#0B2B6B" opacity="0.12">
      <text x="520" y="380" font-size="180" font-family="'Inter', sans-serif" font-weight="800">Medicare</text>
    </g>
    <g fill="#1E40AF">
      <rect x="120" y="340" width="90" height="90" rx="45" fill="#0B2B6B" opacity="0.08" />
      <rect x="260" y="340" width="90" height="90" rx="45" fill="#2563EB" opacity="0.08" />
      <rect x="400" y="340" width="90" height="90" rx="45" fill="#0EA5E9" opacity="0.08" />
      <text x="143" y="400" font-size="28" font-family="'Inter', sans-serif" font-weight="700" fill="#0B2B6B">@you</text>
      <text x="285" y="400" font-size="28" font-family="'Inter', sans-serif" font-weight="700" fill="#2563EB">@yours</text>
      <text x="418" y="400" font-size="28" font-family="'Inter', sans-serif" font-weight="700" fill="#0EA5E9">@care</text>
    </g>
    <g transform="translate(760,230)">
      <rect x="0" y="0" width="320" height="220" rx="24" fill="#E5EDFF" />
      <rect x="30" y="30" width="260" height="60" rx="16" fill="#fff" />
      <circle cx="80" cy="60" r="24" fill="#2563EB" opacity="0.85" />
      <rect x="120" y="44" width="140" height="16" rx="8" fill="#A5B4FC" />
      <rect x="120" y="68" width="110" height="12" rx="6" fill="#CBD5F5" />
      <rect x="30" y="110" width="260" height="18" rx="9" fill="#CBD5F5" />
      <rect x="30" y="138" width="200" height="18" rx="9" fill="#CBD5F5" opacity="0.8" />
      <rect x="30" y="166" width="150" height="18" rx="9" fill="#CBD5F5" opacity="0.7" />
      <rect x="230" y="166" width="60" height="18" rx="9" fill="#2563EB" opacity="0.7" />
    </g>
    <g fill="#1E3A8A" font-family="'Inter', sans-serif" font-size="32" font-weight="800" transform="translate(1020,460)">
      <text x="-12" y="0">✕ ✕</text>
    </g>
  </g>
</svg>
